<svg version="1.1" id="Layer_1" xmlns="http://www.w3.org/2000/svg" xmlns:xlink="http://www.w3.org/1999/xlink" x="0px" y="0px"
	 width="100%" viewBox="0 0 512 512" enable-background="new 0 0 512 512" xml:space="preserve">
<path fill="ffffff" opacity="1.000000" stroke="none" 
	d="
M513.000000,173.000000 
	C513.000000,286.639038 513.000000,399.778076 513.000000,512.958557 
	C342.402618,512.958557 171.805222,512.958557 1.103918,512.958557 
	C1.103918,342.444336 1.103918,171.888565 1.103918,1.166402 
	C171.666534,1.166402 342.333252,1.166402 513.000000,1.166402 
	C513.000000,58.194736 513.000000,115.347366 513.000000,173.000000 
M446.941986,481.008301 
	C456.996246,479.822174 465.666412,475.377045 472.831360,468.558990 
	C483.705780,458.211151 489.089355,445.401794 489.066223,430.121918 
	C488.920807,334.060486 488.962036,237.998764 489.062225,141.275421 
	C489.006653,140.831421 488.951080,140.387405 488.967712,139.017181 
	C488.943054,121.031685 488.918427,103.046181 488.956879,84.227577 
	C486.680664,77.204948 485.325989,69.700546 481.954041,63.250778 
	C472.162079,44.521088 456.192657,34.582794 434.555328,32.296715 
	C432.569519,32.198193 430.583710,32.013683 428.597900,32.013443 
	C314.406952,31.999628 200.216019,32.000408 86.025070,32.004543 
	C82.698746,32.004662 79.372414,32.056065 75.323700,32.308079 
	C68.810516,34.501976 62.002392,36.084190 55.859581,39.046196 
	C48.354324,42.665173 41.772385,47.595356 36.693882,54.729160 
	C30.521088,63.400139 27.190298,72.916862 25.018539,84.019691 
	C25.069283,102.622040 25.120026,121.224388 25.001270,140.524994 
	C25.017887,141.000351 25.034506,141.475708 25.003788,142.894608 
	C25.057356,147.268661 25.110924,151.642715 25.019938,156.942062 
	C25.013424,248.344315 25.032789,339.746582 24.975740,431.148773 
	C24.965864,446.975433 31.209745,459.771271 43.244419,470.734711 
	C44.068104,471.234314 44.907501,471.709961 45.713020,472.237305 
	C52.504944,476.683899 59.469566,480.689636 68.355843,481.787415 
	C69.181213,481.860840 70.006577,481.998444 70.831955,481.998505 
	C194.573196,482.007721 318.314453,482.010101 442.055695,481.966675 
	C443.409607,481.966187 444.763306,481.363007 446.941986,481.008301 
z"/>
<path fill="#474646" opacity="1.000000" stroke="none" 
	d="
M25.123848,83.101837 
	C27.190298,72.916862 30.521088,63.400139 36.693882,54.729160 
	C41.772385,47.595356 48.354324,42.665173 55.859581,39.046196 
	C62.002392,36.084190 68.810516,34.501976 75.994934,32.468712 
	C77.813553,32.759087 78.960930,33.002403 80.108322,33.002449 
	C198.434250,33.007126 316.760162,32.993473 435.086090,32.980919 
	C456.192657,34.582794 472.162079,44.521088 481.954041,63.250778 
	C485.325989,69.700546 486.680664,77.204948 488.677002,84.968506 
	C488.296051,103.195427 488.186981,120.681374 488.128021,138.167511 
	C488.126038,138.758606 488.628326,139.351395 488.895508,139.943405 
	C488.951080,140.387405 489.006653,140.831421 488.545898,141.516052 
	C334.696381,141.745544 181.363235,141.733948 28.030081,141.732651 
	C27.037096,141.732651 26.044109,141.875122 25.051125,141.951065 
	C25.034506,141.475708 25.017887,141.000351 25.290081,139.839600 
	C25.697016,121.058739 25.822855,102.963280 25.898741,84.867622 
	C25.901205,84.280121 25.393652,83.690483 25.123848,83.101837 
M179.999664,107.997681 
	C179.999664,107.997681 179.982712,108.009850 180.219254,108.647476 
	C185.445099,116.000839 194.550461,119.256668 203.403824,116.937645 
	C211.812225,114.735161 219.145584,106.918663 219.920837,98.920067 
	C220.806320,89.784348 218.805450,81.776192 209.660904,76.275749 
	C199.922379,70.838829 189.764130,71.920502 182.292633,79.189972 
	C174.904343,86.378487 173.664963,97.024872 179.227234,107.446358 
	C179.409698,107.735695 179.665771,107.926025 179.999664,107.997681 
M118.516006,108.425713 
	C118.516006,108.425713 118.572517,108.589645 118.844406,109.160446 
	C125.100250,116.607330 133.056046,119.384583 142.357346,116.709373 
	C151.657150,114.034584 157.195465,107.430939 158.428528,97.852379 
	C159.547852,89.157295 156.465118,81.965210 148.578079,76.383324 
	C137.429871,70.731590 127.112701,72.019569 119.827919,79.972435 
	C112.904991,87.530266 112.066360,97.820854 117.821198,107.671692 
	C118.103142,107.894638 118.385094,108.117584 118.516006,108.425713 
M86.606575,76.266251 
	C75.866058,70.726685 65.751350,72.035339 58.305553,79.927872 
	C51.233719,87.424004 50.329926,97.808830 56.090641,107.693115 
	C61.873516,115.797417 70.435150,119.120384 79.952141,116.954292 
	C88.430954,115.024506 95.337326,107.523613 96.841415,98.611153 
	C98.259041,90.210999 94.253288,81.247002 86.606575,76.266251 
M254.838028,101.812370 
	C258.190613,109.596497 264.302094,112.997551 272.570435,112.996872 
	C307.887939,112.993958 343.205414,112.997398 378.522919,112.996582 
	C395.681885,112.996185 412.841858,113.099030 429.999359,112.938766 
	C437.424042,112.869415 443.037781,109.378296 446.208405,102.514252 
	C449.275177,95.875183 448.600342,89.645569 443.485474,83.418495 
	C438.924957,78.535240 433.134247,77.275398 426.697601,77.283951 
	C376.038116,77.351273 325.378540,77.320282 274.718964,77.327034 
	C273.220795,77.327232 271.712585,77.313652 270.226013,77.468857 
	C257.855164,78.760368 251.205124,88.941093 254.838028,101.812370 
M193.500000,44.067951 
	C180.355179,44.071110 167.209549,43.992031 154.065918,44.118099 
	C148.843307,44.168186 145.839920,47.134720 145.911713,51.564293 
	C145.983948,56.021984 148.449158,58.081646 153.998627,58.120678 
	C161.818604,58.175678 169.639221,58.138500 177.459564,58.137760 
	C192.767471,58.136314 208.075546,58.172462 223.383194,58.108467 
	C228.674438,58.086346 231.202423,55.661484 231.046112,51.128826 
	C230.897171,46.809860 227.815979,44.157784 222.453278,44.100986 
	C213.136444,44.002312 203.817856,44.070145 193.500000,44.067951 
M115.758484,58.137001 
	C118.254997,58.119450 121.113091,58.862316 123.156044,57.890900 
	C125.681267,56.690170 129.008789,54.229481 129.254639,52.010193 
	C129.501114,49.785233 126.891075,46.228264 124.599823,45.009537 
	C122.063118,43.660252 118.465828,44.086327 115.334938,44.123344 
	C110.504570,44.180458 107.301819,47.026310 107.067970,51.057724 
	C106.829422,55.169968 109.393478,57.499069 115.758484,58.137001 
z"/>
<path fill="#A2A2F9" opacity="1.000000" stroke="none" 
	d="
M42.949543,470.103729 
	C31.209745,459.771271 24.965864,446.975433 24.975740,431.148773 
	C25.032789,339.746582 25.013424,248.344315 25.550316,156.475601 
	C173.878510,156.007523 321.676331,156.005341 469.474152,156.006134 
	C475.959839,156.006165 475.970612,156.018845 475.970764,162.634979 
	C475.972565,248.614365 475.995026,334.593750 475.957153,420.573120 
	C475.944244,449.838348 452.867889,472.963531 423.667114,472.970856 
	C303.695892,473.000946 183.724670,472.989349 63.753452,472.946777 
	C60.951088,472.945770 58.136787,472.484406 55.349514,472.087189 
	C51.206120,471.496704 47.081917,470.771545 42.949543,470.103729 
M76.971046,450.045441 
	C78.967590,450.105682 80.964127,450.218475 82.960670,450.218597 
	C199.050583,450.226990 315.140991,450.060669 431.229858,450.410675 
	C447.961823,450.461090 457.925751,438.682953 457.893066,423.612396 
	C457.732300,349.495087 457.847931,275.377197 457.739563,201.259689 
	C457.734100,197.518936 456.552979,193.779877 455.884308,189.326340 
	C451.299408,178.478455 442.742401,174.002457 431.367065,174.002838 
	C315.368439,174.006699 199.369797,174.003159 83.371162,174.007187 
	C66.137810,174.007782 56.009289,184.088882 56.007336,201.239716 
	C56.001225,254.905746 56.004734,308.571777 56.005112,362.237823 
	C56.005260,383.570892 55.936844,404.904327 56.034866,426.236938 
	C56.091595,438.583588 64.693001,448.590485 76.971046,450.045441 
M35.000793,265.502197 
	C35.000893,280.659851 34.989613,295.817505 35.007587,310.975159 
	C35.013466,315.931519 37.670250,319.782318 41.063293,319.878510 
	C44.920853,319.987885 47.905098,316.291901 47.953510,311.075073 
	C48.027706,303.080505 47.975853,295.084747 47.975288,287.089508 
	C47.974472,275.596344 48.027657,264.102783 47.943497,252.610229 
	C47.907398,247.680161 44.832333,244.022324 41.227463,244.232361 
	C37.738285,244.435669 35.057606,247.962173 35.010548,252.510818 
	C34.969196,256.508026 35.001194,260.505981 35.000793,265.502197 
M35.408802,215.421860 
	C35.276276,218.571609 35.040039,221.721268 35.037285,224.871124 
	C35.033783,228.874176 37.603542,231.271729 41.123898,231.603806 
	C44.969830,231.966599 47.223717,229.119904 47.777073,225.490585 
	C48.173634,222.889648 48.517067,219.943604 47.673409,217.584518 
	C46.813442,215.179825 44.793884,212.120941 42.685349,211.549255 
	C40.790741,211.035583 38.086456,213.508270 35.408802,215.421860 
z"/>
<path fill="#7979F6" opacity="1.000000" stroke="none" 
	d="
M43.096981,470.419220 
	C47.081917,470.771545 51.206120,471.496704 55.349514,472.087189 
	C58.136787,472.484406 60.951088,472.945770 63.753452,472.946777 
	C183.724670,472.989349 303.695892,473.000946 423.667114,472.970856 
	C452.867889,472.963531 475.944244,449.838348 475.957153,420.573120 
	C475.995026,334.593750 475.972565,248.614365 475.970764,162.634979 
	C475.970612,156.018845 475.959839,156.006165 469.474152,156.006134 
	C321.676331,156.005341 173.878510,156.007523 25.622593,156.012955 
	C25.110924,151.642715 25.057356,147.268661 25.027456,142.422836 
	C26.044109,141.875122 27.037096,141.732651 28.030081,141.732651 
	C181.363235,141.733948 334.696381,141.745544 488.485565,141.846924 
	C488.962036,237.998764 488.920807,334.060486 489.066223,430.121918 
	C489.089355,445.401794 483.705780,458.211151 472.831360,468.558990 
	C465.666412,475.377045 456.996246,479.822174 446.053467,481.013245 
	C319.405457,481.026031 193.645966,481.033875 67.886475,481.041687 
	C59.469566,480.689636 52.504944,476.683899 45.713020,472.237305 
	C44.907501,471.709961 44.068104,471.234314 43.096981,470.419220 
z"/>
<path fill="#8282F6" opacity="1.000000" stroke="none" 
	d="
M68.121155,481.414551 
	C193.645966,481.033875 319.405457,481.026031 445.641052,481.029663 
	C444.763306,481.363007 443.409607,481.966187 442.055695,481.966675 
	C318.314453,482.010101 194.573196,482.007721 70.831955,481.998505 
	C70.006577,481.998444 69.181213,481.860840 68.121155,481.414551 
z"/>
<path fill="#565572" opacity="1.000000" stroke="none" 
	d="
M434.820709,32.638817 
	C316.760162,32.993473 198.434250,33.007126 80.108322,33.002449 
	C78.960930,33.002403 77.813553,32.759087 76.356125,32.356453 
	C79.372414,32.056065 82.698746,32.004662 86.025070,32.004543 
	C200.216019,32.000408 314.406952,31.999628 428.597900,32.013443 
	C430.583710,32.013683 432.569519,32.198193 434.820709,32.638817 
z"/>
<path fill="#5A5989" opacity="1.000000" stroke="none" 
	d="
M25.071194,83.560760 
	C25.393652,83.690483 25.901205,84.280121 25.898741,84.867622 
	C25.822855,102.963280 25.697016,121.058739 25.374828,139.490479 
	C25.120026,121.224388 25.069283,102.622040 25.071194,83.560760 
z"/>
<path fill="#4F4E64" opacity="1.000000" stroke="none" 
	d="
M488.931641,139.480286 
	C488.628326,139.351395 488.126038,138.758606 488.128021,138.167511 
	C488.186981,120.681374 488.296051,103.195427 488.645477,85.385063 
	C488.918427,103.046181 488.943054,121.031685 488.931641,139.480286 
z"/>
<path fill="#FCFCFD" opacity="1.000000" stroke="none" 
	d="
M254.763016,101.093033 
	C251.205124,88.941093 257.855164,78.760368 270.226013,77.468857 
	C271.712585,77.313652 273.220795,77.327232 274.718964,77.327034 
	C325.378540,77.320282 376.038116,77.351273 426.697601,77.283951 
	C433.134247,77.275398 438.924957,78.535240 443.417480,84.060501 
	C441.704803,99.952797 435.988007,104.985176 420.306213,104.985252 
	C373.354614,104.985474 326.402985,104.965797 279.451416,105.003334 
	C270.996307,105.010094 262.482727,105.623817 254.763016,101.093033 
z"/>
<path fill="#E3E2FE" opacity="1.000000" stroke="none" 
	d="
M254.800522,101.452698 
	C262.482727,105.623817 270.996307,105.010094 279.451416,105.003334 
	C326.402985,104.965797 373.354614,104.985474 420.306213,104.985252 
	C435.988007,104.985176 441.704803,99.952797 443.538483,84.364143 
	C448.600342,89.645569 449.275177,95.875183 446.208405,102.514252 
	C443.037781,109.378296 437.424042,112.869415 429.999359,112.938766 
	C412.841858,113.099030 395.681885,112.996185 378.522919,112.996582 
	C343.205414,112.997398 307.887939,112.993958 272.570435,112.996872 
	C264.302094,112.997551 258.190613,109.596497 254.800522,101.452698 
z"/>
<path fill="#7D7C7C" opacity="1.000000" stroke="none" 
	d="
M194.000000,44.068058 
	C203.817856,44.070145 213.136444,44.002312 222.453278,44.100986 
	C227.815979,44.157784 230.897171,46.809860 231.046112,51.128826 
	C231.202423,55.661484 228.674438,58.086346 223.383194,58.108467 
	C208.075546,58.172462 192.767471,58.136314 177.459564,58.137760 
	C169.639221,58.138500 161.818604,58.175678 153.998627,58.120678 
	C148.449158,58.081646 145.983948,56.021984 145.911713,51.564293 
	C145.839920,47.134720 148.843307,44.168186 154.065918,44.118099 
	C167.209549,43.992031 180.355179,44.071110 194.000000,44.068058 
z"/>
<path fill="#FB6559" opacity="1.000000" stroke="none" 
	d="
M55.947334,107.024345 
	C50.329926,97.808830 51.233719,87.424004 58.305553,79.927872 
	C65.751350,72.035339 75.866058,70.726685 86.878632,76.930206 
	C90.684402,91.193756 87.851227,100.423996 78.001923,106.299446 
	C70.872910,110.552155 63.396088,109.681038 55.947334,107.024345 
z"/>
<path fill="#5BC558" opacity="1.000000" stroke="none" 
	d="
M179.056335,106.990173 
	C173.664963,97.024872 174.904343,86.378487 182.292633,79.189972 
	C189.764130,71.920502 199.922379,70.838829 209.916931,76.934723 
	C215.392212,91.908081 208.936752,102.064278 200.368851,106.741989 
	C193.785645,110.336151 186.874527,109.128273 179.982712,108.009850 
	C179.982712,108.009850 179.999664,107.997681 179.887756,107.797272 
	C179.581482,107.340706 179.341644,107.138481 179.056335,106.990173 
z"/>
<path fill="#F8B838" opacity="1.000000" stroke="none" 
	d="
M117.612717,107.154564 
	C112.066360,97.820854 112.904991,87.530266 119.827919,79.972435 
	C127.112701,72.019569 137.429871,70.731590 148.804901,77.090012 
	C149.249924,78.762306 149.495163,79.722710 149.682312,80.694298 
	C153.051132,98.183037 141.115143,111.137428 124.380905,108.978012 
	C122.460052,108.730148 120.509369,108.713501 118.572517,108.589645 
	C118.572517,108.589645 118.516006,108.425713 118.531570,108.098900 
	C118.235664,107.566246 117.924194,107.360405 117.612717,107.154564 
z"/>
<path fill="#E3A222" opacity="1.000000" stroke="none" 
	d="
M118.708466,108.875046 
	C120.509369,108.713501 122.460052,108.730148 124.380905,108.978012 
	C141.115143,111.137428 153.051132,98.183037 149.682312,80.694298 
	C149.495163,79.722710 149.249924,78.762306 149.015732,77.371223 
	C156.465118,81.965210 159.547852,89.157295 158.428528,97.852379 
	C157.195465,107.430939 151.657150,114.034584 142.357346,116.709373 
	C133.056046,119.384583 125.100250,116.607330 118.708466,108.875046 
z"/>
<path fill="#ED5544" opacity="1.000000" stroke="none" 
	d="
M56.018990,107.358734 
	C63.396088,109.681038 70.872910,110.552155 78.001923,106.299446 
	C87.851227,100.423996 90.684402,91.193756 87.118042,77.186737 
	C94.253288,81.247002 98.259041,90.210999 96.841415,98.611153 
	C95.337326,107.523613 88.430954,115.024506 79.952141,116.954292 
	C70.435150,119.120384 61.873516,115.797417 56.018990,107.358734 
z"/>
<path fill="#49A147" opacity="1.000000" stroke="none" 
	d="
M180.100983,108.328659 
	C186.874527,109.128273 193.785645,110.336151 200.368851,106.741989 
	C208.936752,102.064278 215.392212,91.908081 210.162827,77.186081 
	C218.805450,81.776192 220.806320,89.784348 219.920837,98.920067 
	C219.145584,106.918663 211.812225,114.735161 203.403824,116.937645 
	C194.550461,119.256668 185.445099,116.000839 180.100983,108.328659 
z"/>
<path fill="#7C7B7B" opacity="1.000000" stroke="none" 
	d="
M115.306976,58.134319 
	C109.393478,57.499069 106.829422,55.169968 107.067970,51.057724 
	C107.301819,47.026310 110.504570,44.180458 115.334938,44.123344 
	C118.465828,44.086327 122.063118,43.660252 124.599823,45.009537 
	C126.891075,46.228264 129.501114,49.785233 129.254639,52.010193 
	C129.008789,54.229481 125.681267,56.690170 123.156044,57.890900 
	C121.113091,58.862316 118.254997,58.119450 115.306976,58.134319 
z"/>
<path fill="#E3A222" opacity="1.000000" stroke="none" 
	d="
M117.716957,107.413132 
	C117.924194,107.360405 118.235664,107.566246 118.607086,108.056313 
	C118.385094,108.117584 118.103142,107.894638 117.716957,107.413132 
z"/>
<path fill="#49A147" opacity="1.000000" stroke="none" 
	d="
M179.141785,107.218262 
	C179.341644,107.138481 179.581482,107.340706 179.885651,107.807098 
	C179.665771,107.926025 179.409698,107.735695 179.141785,107.218262 
z"/>
<path fill="#FEFEFE" opacity="1.000000" stroke="none" 
	d="
M455.919281,190.040039 
	C456.552979,193.779877 457.734100,197.518936 457.739563,201.259689 
	C457.847931,275.377197 457.732300,349.495087 457.893066,423.612396 
	C457.925751,438.682953 447.961823,450.461090 431.229858,450.410675 
	C315.140991,450.060669 199.050583,450.226990 82.960670,450.218597 
	C80.964127,450.218475 78.967590,450.105682 76.473969,449.556274 
	C75.651718,446.105347 75.049103,443.144073 75.043633,440.181671 
	C74.978096,404.700684 75.000984,369.219574 75.001091,333.738464 
	C75.001213,294.259491 74.974388,254.780518 75.016457,215.301605 
	C75.031685,201.014938 85.480553,190.019608 99.109718,190.017731 
	C218.046234,190.001389 336.982758,190.026932 455.919281,190.040039 
M259.814178,324.440430 
	C254.883011,320.706848 251.252884,324.309814 248.601807,325.907837 
	C245.636322,324.907318 243.180908,323.208405 241.552048,323.796997 
	C240.178757,324.293213 239.107712,327.424225 239.041840,329.426453 
	C238.768784,337.725983 238.982712,346.040314 238.897873,354.347992 
	C238.868896,357.185486 239.591675,359.603485 242.705856,359.663025 
	C246.077652,359.727417 247.010864,357.235016 246.958298,354.183350 
	C246.881012,349.698059 246.937286,345.210449 246.939499,340.723846 
	C246.942749,334.178589 248.916626,331.994385 255.277466,330.719452 
	C256.970703,330.380035 258.454865,328.997406 260.718475,328.269440 
	C264.619873,337.415680 268.371277,346.631470 272.550842,355.648773 
	C273.375000,357.426880 275.698395,359.163666 277.613190,359.562836 
	C278.989746,359.849823 281.696838,358.268585 282.334473,356.854980 
	C286.557892,347.492188 290.509430,337.997925 294.173950,328.403076 
	C294.626251,327.218842 293.219482,324.284058 292.014343,323.798615 
	C290.798340,323.308807 288.541260,324.569824 287.160767,325.617737 
	C286.254059,326.306030 286.091980,327.976379 285.598602,329.207855 
	C283.089142,335.471191 280.580414,341.734833 277.727509,348.856934 
	C274.929718,341.813599 272.501160,335.720245 270.088440,329.620605 
	C267.161713,322.221344 266.744446,322.035858 259.814178,324.440430 
M209.510071,279.846985 
	C214.856247,268.085297 214.640564,256.385071 206.126984,246.556259 
	C194.491150,233.122803 179.428360,235.702789 163.876862,240.044586 
	C164.979431,232.825958 166.041458,225.872681 167.155533,218.578720 
	C178.624802,218.578720 189.601105,218.690811 200.573318,218.528610 
	C205.612396,218.454117 208.193634,215.872375 208.122467,211.752167 
	C208.051926,207.666473 205.309647,205.135773 200.419327,205.100891 
	C187.919983,205.011765 175.419052,205.004547 162.919830,205.101730 
	C157.649536,205.142700 154.948380,207.513687 154.041473,212.726929 
	C152.215729,223.222260 150.591309,233.752884 148.729919,244.241623 
	C147.988724,248.418137 147.881882,252.303345 151.717651,255.058746 
	C155.747650,257.953674 159.707047,257.246552 163.848434,254.876831 
	C170.847870,250.871689 178.372452,249.223038 186.442947,250.877625 
	C194.175613,252.462952 198.537201,257.433563 198.748184,265.004913 
	C198.973068,273.074799 195.060516,278.135468 186.953873,279.966278 
	C177.036270,282.206024 167.477615,281.251740 158.253876,276.740875 
	C153.638092,274.483521 149.995224,275.450134 148.301895,278.848114 
	C146.474075,282.515961 147.897278,286.281555 152.308228,288.744263 
	C164.715973,295.671753 177.905045,296.671509 191.509415,293.424316 
	C199.125275,291.606476 205.133759,287.361694 209.510071,279.846985 
M227.959854,277.451508 
	C234.723022,290.781464 245.904007,296.072693 260.388641,294.959717 
	C274.200043,293.898468 283.157104,286.056702 287.711243,273.474548 
	C293.634338,257.110229 293.664459,240.482605 287.129730,224.240631 
	C281.737274,210.837830 271.555389,203.944992 256.935455,203.962357 
	C242.572235,203.979416 232.132843,210.620926 226.831619,224.323730 
	C220.074936,241.788620 220.325851,259.398590 227.959854,277.451508 
M346.336914,205.923080 
	C325.366089,199.440125 308.173370,208.555695 302.100586,229.523056 
	C298.947449,240.409882 298.741425,251.528610 300.604187,262.634583 
	C301.312561,266.858063 302.481140,271.111633 304.157593,275.045685 
	C309.629761,287.887115 319.288177,294.863922 333.517853,295.080841 
	C348.095673,295.303070 358.596588,288.833282 364.106873,275.437897 
	C371.180084,258.242920 371.008148,240.737473 364.086060,223.476135 
	C360.872589,215.462784 355.265076,209.465515 346.336914,205.923080 
M207.300613,403.065491 
	C208.965118,403.034943 211.031006,403.601440 212.191528,402.821228 
	C213.610535,401.867188 214.270401,399.783997 215.258560,398.189087 
	C213.507584,397.255066 211.795792,395.615387 209.998489,395.515625 
	C203.922913,395.178284 197.817001,395.387024 191.699890,395.387024 
	C191.699890,390.838348 191.699890,387.068115 191.699890,382.791443 
	C198.713852,382.791443 205.503113,382.802673 212.292313,382.786102 
	C215.138382,382.779175 218.291763,382.264740 217.678085,378.739746 
	C217.418137,377.246490 214.289948,375.312958 212.379044,375.211914 
	C204.737717,374.807861 197.058701,375.188995 189.401260,374.988434 
	C185.065018,374.874817 183.350845,376.773285 183.367172,380.913879 
	C183.415787,393.240631 183.434082,405.567963 183.357773,417.894409 
	C183.332977,421.901215 185.119064,423.671753 189.090958,423.634583 
	C196.752960,423.562836 204.416275,423.642517 212.078751,423.601898 
	C214.830795,423.587311 217.892670,423.392944 217.856628,419.714508 
	C217.821182,416.094696 214.911850,415.896088 212.061798,415.918030 
	C205.286530,415.970184 198.510605,415.934845 191.709534,415.934845 
	C191.709534,411.380981 191.709534,407.440277 191.709534,403.065521 
	C196.748642,403.065521 201.548431,403.065521 207.300613,403.065491 
M194.897980,343.957794 
	C193.901840,338.421844 190.332352,335.284973 185.201599,333.672852 
	C180.300034,332.132721 175.261612,330.948120 170.519943,329.024170 
	C168.937927,328.382233 167.146973,325.931152 167.160522,324.321442 
	C167.174652,322.643066 168.938766,320.530365 170.514343,319.443054 
	C172.029800,318.397247 174.309357,317.960205 176.206299,318.069519 
	C180.153214,318.296967 184.059555,319.334259 188.002487,319.473236 
	C189.583954,319.528931 191.217880,318.095551 192.827942,317.339966 
	C192.015823,315.744171 191.566147,313.169983 190.332199,312.712891 
	C182.847076,309.940247 175.109299,309.017975 167.465103,312.162506 
	C161.712067,314.529083 158.724289,319.509613 158.855194,325.501831 
	C158.988495,331.602997 162.801453,334.843781 167.885468,336.785065 
	C172.217758,338.439270 176.771698,339.505920 181.201843,340.913513 
	C184.055878,341.820312 187.323334,342.586670 186.915604,346.606934 
	C186.519760,350.509979 183.449326,352.030365 180.176956,351.926147 
	C175.100800,351.764557 170.023788,350.981934 164.998169,350.153107 
	C162.464523,349.735199 159.898285,348.647308 158.694962,351.919098 
	C157.540176,355.058929 159.570007,356.789093 162.247513,357.270752 
	C168.244583,358.349487 174.336716,359.929626 180.336380,359.725555 
	C189.615662,359.409943 194.747620,353.510468 194.897980,343.957794 
M313.872742,352.214142 
	C309.543152,351.691223 306.671906,349.647156 305.757416,344.604858 
	C309.460052,344.604858 312.603027,344.605591 315.746002,344.604645 
	C319.076233,344.603668 322.406464,344.593872 325.736664,344.601440 
	C328.864655,344.608551 330.787506,343.380707 330.928345,339.958374 
	C331.199493,333.369873 326.534882,326.296844 320.247192,323.935394 
	C313.103271,321.252289 305.175049,323.361908 300.899384,329.083588 
	C295.569489,336.216003 295.887970,348.382080 301.569611,354.685883 
	C307.017548,360.730408 319.634186,362.105133 326.965424,357.149292 
	C328.250916,356.280243 328.615509,354.048920 329.405426,352.446747 
	C327.602203,351.886871 325.781067,350.817474 323.999695,350.879974 
	C320.899261,350.988708 317.823395,351.795807 313.872742,352.214142 
M201.873795,352.451508 
	C207.073288,361.747528 222.058578,361.760925 229.111389,357.033691 
	C230.343002,356.208191 230.561310,353.870880 231.247620,352.231842 
	C229.559174,351.705414 227.849594,350.682465 226.186584,350.753265 
	C222.431580,350.913086 218.677628,352.117462 214.964218,351.955872 
	C211.037964,351.785034 208.378174,349.356140 207.894135,344.601013 
	C214.656189,344.601013 221.131714,344.583008 227.607071,344.608368 
	C231.040894,344.621796 232.907654,343.161774 232.881882,339.533020 
	C232.824326,331.432159 226.652542,324.101990 218.900314,323.034424 
	C209.781784,321.778687 202.416855,326.347839 200.031250,334.821991 
	C198.390854,340.649048 198.716812,346.345947 201.873795,352.451508 
M298.501038,388.741425 
	C297.091766,388.252869 295.715729,387.606964 294.267853,387.300995 
	C284.095856,385.151520 275.111847,390.673798 272.878967,400.379822 
	C270.321136,411.498383 275.517853,421.212646 285.333527,423.661255 
	C294.314697,425.901794 303.241852,421.849030 306.660400,413.979309 
	C310.694000,404.693787 307.719116,394.729401 298.501038,388.741425 
M242.244812,386.988831 
	C238.994568,387.994507 235.744339,389.000183 232.922363,389.873352 
	C231.129456,389.083099 229.152130,387.482483 227.378525,387.683075 
	C226.171600,387.819580 224.390808,390.451050 224.342026,392.012939 
	C224.056213,401.161377 224.027588,410.330261 224.383484,419.473938 
	C224.442291,420.984619 226.826370,422.404724 228.135834,423.866699 
	C229.494095,422.316010 231.810806,420.886047 232.024216,419.191223 
	C232.581497,414.765381 232.220184,410.223663 232.221725,405.728149 
	C232.224365,398.070435 233.875839,396.268616 241.312988,394.759888 
	C242.977768,394.422119 245.276657,393.002411 245.628784,391.649963 
	C245.946350,390.430237 243.998077,388.620514 242.244812,386.988831 
M336.954956,347.449432 
	C336.955566,349.776031 337.035278,352.105957 336.936615,354.428345 
	C336.814758,357.296082 337.721863,359.615631 340.831757,359.663971 
	C343.880249,359.711395 345.015381,357.530853 344.981934,354.609467 
	C344.924866,349.624603 345.220032,344.622284 344.899811,339.657440 
	C344.558685,334.368622 347.596527,332.231812 351.929688,330.991241 
	C352.874420,330.720764 354.226837,331.106323 354.829834,330.564575 
	C356.237640,329.299744 357.304199,327.654999 358.508972,326.164124 
	C356.914062,325.096100 355.205688,323.011353 353.748108,323.173981 
	C350.812225,323.501617 348.012878,325.052734 345.937683,325.813110 
	C343.745819,324.918823 341.015533,322.943481 340.029877,323.597504 
	C338.410004,324.672333 337.235535,327.404022 337.088257,329.521637 
	C336.697113,335.144714 336.955109,340.812958 336.954956,347.449432 
M322.888031,404.743866 
	C322.920868,397.943756 324.608765,396.010651 331.795319,394.883881 
	C334.557404,394.450775 336.774323,393.576355 336.284851,390.262512 
	C335.791443,386.922180 333.173248,386.472076 330.618347,387.175659 
	C328.022522,387.890533 325.617798,389.299316 324.182861,389.936462 
	C321.551514,388.951569 319.125122,387.163696 317.751434,387.768188 
	C316.276398,388.417236 315.065430,391.288818 314.998169,393.234100 
	C314.705841,401.686096 314.914642,410.154266 314.849152,418.615845 
	C314.827057,421.471283 315.773010,424.134583 318.750671,423.600464 
	C320.374115,423.309265 322.433014,420.498749 322.699982,418.600098 
	C323.294830,414.369629 322.887146,409.998169 322.888031,404.743866 
M269.346680,394.226624 
	C269.723633,392.246429 271.061127,389.080048 270.320374,388.480194 
	C265.799042,384.818909 262.134583,388.354950 259.403046,390.049438 
	C256.622162,389.069733 253.873413,387.166565 252.573639,387.884949 
	C251.022064,388.742523 250.056259,391.821564 249.979355,393.979004 
	C249.689346,402.115326 249.911469,410.268646 249.836884,418.414642 
	C249.811203,421.220642 250.459763,423.692963 253.604675,423.776764 
	C257.002899,423.867310 257.919434,421.334625 257.893402,418.313751 
	C257.850403,413.326355 258.142395,408.320770 257.807281,403.355682 
	C257.495575,398.737396 260.197174,396.735199 263.770203,395.351868 
	C265.278564,394.767944 267.021515,394.789948 269.346680,394.226624 
z"/>
<path fill="#E3E2FF" opacity="1.000000" stroke="none" 
	d="
M455.901794,189.683197 
	C336.982758,190.026932 218.046234,190.001389 99.109718,190.017731 
	C85.480553,190.019608 75.031685,201.014938 75.016457,215.301605 
	C74.974388,254.780518 75.001213,294.259491 75.001091,333.738464 
	C75.000984,369.219574 74.978096,404.700684 75.043633,440.181671 
	C75.049103,443.144073 75.651718,446.105347 76.013702,449.478088 
	C64.693001,448.590485 56.091595,438.583588 56.034866,426.236938 
	C55.936844,404.904327 56.005260,383.570892 56.005112,362.237823 
	C56.004734,308.571777 56.001225,254.905746 56.007336,201.239716 
	C56.009289,184.088882 66.137810,174.007782 83.371162,174.007187 
	C199.369797,174.003159 315.368439,174.006699 431.367065,174.002838 
	C442.742401,174.002457 451.299408,178.478455 455.901794,189.683197 
z"/>
<path fill="#C6C6FB" opacity="1.000000" stroke="none" 
	d="
M35.000793,265.002899 
	C35.001194,260.505981 34.969196,256.508026 35.010548,252.510818 
	C35.057606,247.962173 37.738285,244.435669 41.227463,244.232361 
	C44.832333,244.022324 47.907398,247.680161 47.943497,252.610229 
	C48.027657,264.102783 47.974472,275.596344 47.975288,287.089508 
	C47.975853,295.084747 48.027706,303.080505 47.953510,311.075073 
	C47.905098,316.291901 44.920853,319.987885 41.063293,319.878510 
	C37.670250,319.782318 35.013466,315.931519 35.007587,310.975159 
	C34.989613,295.817505 35.000893,280.659851 35.000793,265.002899 
z"/>
<path fill="#C6C6FB" opacity="1.000000" stroke="none" 
	d="
M35.574066,215.042755 
	C38.086456,213.508270 40.790741,211.035583 42.685349,211.549255 
	C44.793884,212.120941 46.813442,215.179825 47.673409,217.584518 
	C48.517067,219.943604 48.173634,222.889648 47.777073,225.490585 
	C47.223717,229.119904 44.969830,231.966599 41.123898,231.603806 
	C37.603542,231.271729 35.033783,228.874176 35.037285,224.871124 
	C35.040039,221.721268 35.276276,218.571609 35.574066,215.042755 
z"/>
<path fill="#EF5947" opacity="1.000000" stroke="none" 
	d="
M209.319992,280.170227 
	C205.133759,287.361694 199.125275,291.606476 191.509415,293.424316 
	C177.905045,296.671509 164.715973,295.671753 152.308228,288.744263 
	C147.897278,286.281555 146.474075,282.515961 148.301895,278.848114 
	C149.995224,275.450134 153.638092,274.483521 158.253876,276.740875 
	C167.477615,281.251740 177.036270,282.206024 186.953873,279.966278 
	C195.060516,278.135468 198.973068,273.074799 198.748184,265.004913 
	C198.537201,257.433563 194.175613,252.462952 186.442947,250.877625 
	C178.372452,249.223038 170.847870,250.871689 163.848434,254.876831 
	C159.707047,257.246552 155.747650,257.953674 151.717651,255.058746 
	C147.881882,252.303345 147.988724,248.418137 148.729919,244.241623 
	C150.591309,233.752884 152.215729,223.222260 154.041473,212.726929 
	C154.948380,207.513687 157.649536,205.142700 162.919830,205.101730 
	C175.419052,205.004547 187.919983,205.011765 200.419327,205.100891 
	C205.309647,205.135773 208.051926,207.666473 208.122467,211.752167 
	C208.193634,215.872375 205.612396,218.454117 200.573318,218.528610 
	C189.601105,218.690811 178.624802,218.578720 167.155533,218.578720 
	C166.041458,225.872681 164.979431,232.825958 163.876862,240.044586 
	C179.428360,235.702789 194.491150,233.122803 206.126984,246.556259 
	C214.640564,256.385071 214.856247,268.085297 209.319992,280.170227 
z"/>
<path fill="#EF5846" opacity="1.000000" stroke="none" 
	d="
M227.795792,277.113342 
	C220.325851,259.398590 220.074936,241.788620 226.831619,224.323730 
	C232.132843,210.620926 242.572235,203.979416 256.935455,203.962357 
	C271.555389,203.944992 281.737274,210.837830 287.129730,224.240631 
	C293.664459,240.482605 293.634338,257.110229 287.711243,273.474548 
	C283.157104,286.056702 274.200043,293.898468 260.388641,294.959717 
	C245.904007,296.072693 234.723022,290.781464 227.795792,277.113342 
M277.162262,257.518402 
	C276.436890,248.818527 276.683533,239.892838 274.728760,231.478561 
	C272.514008,221.945190 265.627136,217.330093 257.205322,217.220016 
	C248.642365,217.108093 241.651321,221.832489 239.218475,231.566711 
	C237.281189,239.318085 236.580643,247.622528 236.911331,255.616074 
	C237.156006,261.530273 238.943649,267.886902 241.795822,273.085205 
	C248.453934,285.219971 265.634460,285.049652 272.380280,272.943665 
	C274.813416,268.577118 275.561188,263.271423 277.162262,257.518402 
z"/>
<path fill="#EF5846" opacity="1.000000" stroke="none" 
	d="
M346.712280,206.040665 
	C355.265076,209.465515 360.872589,215.462784 364.086060,223.476135 
	C371.008148,240.737473 371.180084,258.242920 364.106873,275.437897 
	C358.596588,288.833282 348.095673,295.303070 333.517853,295.080841 
	C319.288177,294.863922 309.629761,287.887115 304.157593,275.045685 
	C302.481140,271.111633 301.312561,266.858063 300.604187,262.634583 
	C298.741425,251.528610 298.947449,240.409882 302.100586,229.523056 
	C308.173370,208.555695 325.366089,199.440125 346.712280,206.040665 
M353.652161,236.150070 
	C353.115356,234.406128 352.663177,232.630676 352.027557,230.923508 
	C348.668335,221.900970 342.748840,217.316742 334.418976,217.215958 
	C326.171204,217.116165 319.796936,221.578049 316.661346,230.662766 
	C312.301392,243.295105 312.362885,256.131378 316.756348,268.782867 
	C318.796051,274.656464 322.455719,279.262665 328.799988,281.109344 
	C339.232269,284.145966 348.053986,279.274841 352.094757,267.974640 
	C355.717163,257.844360 355.585297,247.438400 353.652161,236.150070 
z"/>
<path fill="#393838" opacity="1.000000" stroke="none" 
	d="
M206.824402,403.065491 
	C201.548431,403.065521 196.748642,403.065521 191.709534,403.065521 
	C191.709534,407.440277 191.709534,411.380981 191.709534,415.934845 
	C198.510605,415.934845 205.286530,415.970184 212.061798,415.918030 
	C214.911850,415.896088 217.821182,416.094696 217.856628,419.714508 
	C217.892670,423.392944 214.830795,423.587311 212.078751,423.601898 
	C204.416275,423.642517 196.752960,423.562836 189.090958,423.634583 
	C185.119064,423.671753 183.332977,421.901215 183.357773,417.894409 
	C183.434082,405.567963 183.415787,393.240631 183.367172,380.913879 
	C183.350845,376.773285 185.065018,374.874817 189.401260,374.988434 
	C197.058701,375.188995 204.737717,374.807861 212.379044,375.211914 
	C214.289948,375.312958 217.418137,377.246490 217.678085,378.739746 
	C218.291763,382.264740 215.138382,382.779175 212.292313,382.786102 
	C205.503113,382.802673 198.713852,382.791443 191.699890,382.791443 
	C191.699890,387.068115 191.699890,390.838348 191.699890,395.387024 
	C197.817001,395.387024 203.922913,395.178284 209.998489,395.515625 
	C211.795792,395.615387 213.507584,397.255066 215.258560,398.189087 
	C214.270401,399.783997 213.610535,401.867188 212.191528,402.821228 
	C211.031006,403.601440 208.965118,403.034943 206.824402,403.065491 
z"/>
<path fill="#353434" opacity="1.000000" stroke="none" 
	d="
M194.929230,344.365845 
	C194.747620,353.510468 189.615662,359.409943 180.336380,359.725555 
	C174.336716,359.929626 168.244583,358.349487 162.247513,357.270752 
	C159.570007,356.789093 157.540176,355.058929 158.694962,351.919098 
	C159.898285,348.647308 162.464523,349.735199 164.998169,350.153107 
	C170.023788,350.981934 175.100800,351.764557 180.176956,351.926147 
	C183.449326,352.030365 186.519760,350.509979 186.915604,346.606934 
	C187.323334,342.586670 184.055878,341.820312 181.201843,340.913513 
	C176.771698,339.505920 172.217758,338.439270 167.885468,336.785065 
	C162.801453,334.843781 158.988495,331.602997 158.855194,325.501831 
	C158.724289,319.509613 161.712067,314.529083 167.465103,312.162506 
	C175.109299,309.017975 182.847076,309.940247 190.332199,312.712891 
	C191.566147,313.169983 192.015823,315.744171 192.827942,317.339966 
	C191.217880,318.095551 189.583954,319.528931 188.002487,319.473236 
	C184.059555,319.334259 180.153214,318.296967 176.206299,318.069519 
	C174.309357,317.960205 172.029800,318.397247 170.514343,319.443054 
	C168.938766,320.530365 167.174652,322.643066 167.160522,324.321442 
	C167.146973,325.931152 168.937927,328.382233 170.519943,329.024170 
	C175.261612,330.948120 180.300034,332.132721 185.201599,333.672852 
	C190.332352,335.284973 193.901840,338.421844 194.929230,344.365845 
z"/>
<path fill="#363535" opacity="1.000000" stroke="none" 
	d="
M314.304993,352.262146 
	C317.823395,351.795807 320.899261,350.988708 323.999695,350.879974 
	C325.781067,350.817474 327.602203,351.886871 329.405396,352.446747 
	C328.615509,354.048920 328.250916,356.280243 326.965424,357.149292 
	C319.634186,362.105133 307.017548,360.730408 301.569611,354.685883 
	C295.887970,348.382080 295.569489,336.216003 300.899384,329.083588 
	C305.175049,323.361908 313.103271,321.252289 320.247192,323.935394 
	C326.534882,326.296844 331.199493,333.369873 330.928345,339.958374 
	C330.787506,343.380707 328.864655,344.608551 325.736664,344.601440 
	C322.406464,344.593872 319.076233,344.603668 315.746002,344.604645 
	C312.603027,344.605591 309.460052,344.604858 305.757416,344.604858 
	C306.671906,349.647156 309.543152,351.691223 314.304993,352.262146 
M319.480316,331.771149 
	C312.236206,328.125000 306.720795,330.463928 306.099152,337.635223 
	C311.501831,337.635223 316.887512,337.635223 323.174408,337.635223 
	C321.941650,335.485992 321.010956,333.863403 319.480316,331.771149 
z"/>
<path fill="#373636" opacity="1.000000" stroke="none" 
	d="
M201.668900,352.136169 
	C198.716812,346.345947 198.390854,340.649048 200.031250,334.821991 
	C202.416855,326.347839 209.781784,321.778687 218.900314,323.034424 
	C226.652542,324.101990 232.824326,331.432159 232.881882,339.533020 
	C232.907654,343.161774 231.040894,344.621796 227.607071,344.608368 
	C221.131714,344.583008 214.656189,344.601013 207.894135,344.601013 
	C208.378174,349.356140 211.037964,351.785034 214.964218,351.955872 
	C218.677628,352.117462 222.431580,350.913086 226.186584,350.753265 
	C227.849594,350.682465 229.559174,351.705414 231.247620,352.231812 
	C230.561310,353.870880 230.343002,356.208191 229.111389,357.033691 
	C222.058578,361.760925 207.073288,361.747528 201.668900,352.136169 
M222.055725,332.253967 
	C218.937332,329.712891 215.358200,328.905945 211.964859,331.067596 
	C209.947250,332.352936 208.671768,334.803192 206.387650,337.537842 
	C213.536896,337.537842 218.907211,337.537842 224.985962,337.537842 
	C224.008377,335.613403 223.293396,334.205902 222.055725,332.253967 
z"/>
<path fill="#343333" opacity="1.000000" stroke="none" 
	d="
M298.856293,388.885437 
	C307.719116,394.729401 310.694000,404.693787 306.660400,413.979309 
	C303.241852,421.849030 294.314697,425.901794 285.333527,423.661255 
	C275.517853,421.212646 270.321136,411.498383 272.878967,400.379822 
	C275.111847,390.673798 284.095856,385.151520 294.267853,387.300995 
	C295.715729,387.606964 297.091766,388.252869 298.856293,388.885437 
M292.682220,416.405121 
	C298.438995,413.938782 300.434662,410.730072 300.122131,404.475159 
	C299.895325,399.935516 298.074432,395.838531 293.492645,395.229675 
	C290.148743,394.785278 285.957367,395.798920 283.127228,397.658936 
	C279.629120,399.957916 279.257202,406.667358 281.397827,411.010529 
	C283.529114,415.334686 287.102203,417.256409 292.682220,416.405121 
z"/>
<path fill="#353434" opacity="1.000000" stroke="none" 
	d="
M259.942047,325.228424 
	C266.744446,322.035858 267.161713,322.221344 270.088440,329.620605 
	C272.501160,335.720245 274.929718,341.813599 277.727509,348.856934 
	C280.580414,341.734833 283.089142,335.471191 285.598602,329.207855 
	C286.091980,327.976379 286.254059,326.306030 287.160767,325.617737 
	C288.541260,324.569824 290.798340,323.308807 292.014343,323.798615 
	C293.219482,324.284058 294.626251,327.218842 294.173950,328.403076 
	C290.509430,337.997925 286.557892,347.492188 282.334473,356.854980 
	C281.696838,358.268585 278.989746,359.849823 277.613190,359.562836 
	C275.698395,359.163666 273.375000,357.426880 272.550842,355.648773 
	C268.371277,346.631470 264.619873,337.415680 260.359772,327.823608 
	C259.981415,326.661316 259.961731,325.944885 259.942047,325.228424 
z"/>
<path fill="#373636" opacity="1.000000" stroke="none" 
	d="
M242.646942,387.029907 
	C243.998077,388.620514 245.946350,390.430237 245.628784,391.649963 
	C245.276657,393.002411 242.977768,394.422119 241.312988,394.759888 
	C233.875839,396.268616 232.224365,398.070435 232.221725,405.728149 
	C232.220184,410.223663 232.581497,414.765381 232.024216,419.191223 
	C231.810806,420.886047 229.494095,422.316010 228.135834,423.866699 
	C226.826370,422.404724 224.442291,420.984619 224.383484,419.473938 
	C224.027588,410.330261 224.056213,401.161377 224.342026,392.012939 
	C224.390808,390.451050 226.171600,387.819580 227.378525,387.683075 
	C229.152130,387.482483 231.129456,389.083099 232.922363,389.873352 
	C235.744339,389.000183 238.994568,387.994507 242.646942,387.029907 
z"/>
<path fill="#323131" opacity="1.000000" stroke="none" 
	d="
M336.954956,346.956329 
	C336.955109,340.812958 336.697113,335.144714 337.088257,329.521637 
	C337.235535,327.404022 338.410004,324.672333 340.029877,323.597504 
	C341.015533,322.943481 343.745819,324.918823 345.937683,325.813110 
	C348.012878,325.052734 350.812225,323.501617 353.748108,323.173981 
	C355.205688,323.011353 356.914062,325.096100 358.508972,326.164124 
	C357.304199,327.654999 356.237640,329.299744 354.829834,330.564575 
	C354.226837,331.106323 352.874420,330.720764 351.929688,330.991241 
	C347.596527,332.231812 344.558685,334.368622 344.899811,339.657440 
	C345.220032,344.622284 344.924866,349.624603 344.981934,354.609467 
	C345.015381,357.530853 343.880249,359.711395 340.831757,359.663971 
	C337.721863,359.615631 336.814758,357.296082 336.936615,354.428345 
	C337.035278,352.105957 336.955566,349.776031 336.954956,346.956329 
z"/>
<path fill="#333232" opacity="1.000000" stroke="none" 
	d="
M322.888031,405.214020 
	C322.887146,409.998169 323.294830,414.369629 322.699982,418.600098 
	C322.433014,420.498749 320.374115,423.309265 318.750671,423.600464 
	C315.773010,424.134583 314.827057,421.471283 314.849152,418.615845 
	C314.914642,410.154266 314.705841,401.686096 314.998169,393.234100 
	C315.065430,391.288818 316.276398,388.417236 317.751434,387.768188 
	C319.125122,387.163696 321.551514,388.951569 324.182861,389.936462 
	C325.617798,389.299316 328.022522,387.890533 330.618347,387.175659 
	C333.173248,386.472076 335.791443,386.922180 336.284851,390.262512 
	C336.774323,393.576355 334.557404,394.450775 331.795319,394.883881 
	C324.608765,396.010651 322.920868,397.943756 322.888031,405.214020 
z"/>
<path fill="#333333" opacity="1.000000" stroke="none" 
	d="
M269.002258,394.381561 
	C267.021515,394.789948 265.278564,394.767944 263.770203,395.351868 
	C260.197174,396.735199 257.495575,398.737396 257.807281,403.355682 
	C258.142395,408.320770 257.850403,413.326355 257.893402,418.313751 
	C257.919434,421.334625 257.002899,423.867310 253.604675,423.776764 
	C250.459763,423.692963 249.811203,421.220642 249.836884,418.414642 
	C249.911469,410.268646 249.689346,402.115326 249.979355,393.979004 
	C250.056259,391.821564 251.022064,388.742523 252.573639,387.884949 
	C253.873413,387.166565 256.622162,389.069733 259.403046,390.049438 
	C262.134583,388.354950 265.799042,384.818909 270.320374,388.480194 
	C271.061127,389.080048 269.723633,392.246429 269.002258,394.381561 
z"/>
<path fill="#323131" opacity="1.000000" stroke="none" 
	d="
M259.878113,324.834412 
	C259.961731,325.944885 259.981415,326.661316 260.018036,327.735779 
	C258.454865,328.997406 256.970703,330.380035 255.277466,330.719452 
	C248.916626,331.994385 246.942749,334.178589 246.939499,340.723846 
	C246.937286,345.210449 246.881012,349.698059 246.958298,354.183350 
	C247.010864,357.235016 246.077652,359.727417 242.705856,359.663025 
	C239.591675,359.603485 238.868896,357.185486 238.897873,354.347992 
	C238.982712,346.040314 238.768784,337.725983 239.041840,329.426453 
	C239.107712,327.424225 240.178757,324.293213 241.552048,323.796997 
	C243.180908,323.208405 245.636322,324.907318 248.601807,325.907837 
	C251.252884,324.309814 254.883011,320.706848 259.878113,324.834412 
z"/>
<path fill="#FFFDFD" opacity="1.000000" stroke="none" 
	d="
M277.120178,257.956360 
	C275.561188,263.271423 274.813416,268.577118 272.380280,272.943665 
	C265.634460,285.049652 248.453934,285.219971 241.795822,273.085205 
	C238.943649,267.886902 237.156006,261.530273 236.911331,255.616074 
	C236.580643,247.622528 237.281189,239.318085 239.218475,231.566711 
	C241.651321,221.832489 248.642365,217.108093 257.205322,217.220016 
	C265.627136,217.330093 272.514008,221.945190 274.728760,231.478561 
	C276.683533,239.892838 276.436890,248.818527 277.120178,257.956360 
z"/>
<path fill="#FFFDFD" opacity="1.000000" stroke="none" 
	d="
M353.745850,236.561462 
	C355.585297,247.438400 355.717163,257.844360 352.094757,267.974640 
	C348.053986,279.274841 339.232269,284.145966 328.799988,281.109344 
	C322.455719,279.262665 318.796051,274.656464 316.756348,268.782867 
	C312.362885,256.131378 312.301392,243.295105 316.661346,230.662766 
	C319.796936,221.578049 326.171204,217.116165 334.418976,217.215958 
	C342.748840,217.316742 348.668335,221.900970 352.027557,230.923508 
	C352.663177,232.630676 353.115356,234.406128 353.745850,236.561462 
z"/>
<path fill="#F2F2F2" opacity="1.000000" stroke="none" 
	d="
M319.780273,332.005981 
	C321.010956,333.863403 321.941650,335.485992 323.174408,337.635223 
	C316.887512,337.635223 311.501831,337.635223 306.099152,337.635223 
	C306.720795,330.463928 312.236206,328.125000 319.780273,332.005981 
z"/>
<path fill="#F2F2F2" opacity="1.000000" stroke="none" 
	d="
M222.317078,332.526184 
	C223.293396,334.205902 224.008377,335.613403 224.985962,337.537842 
	C218.907211,337.537842 213.536896,337.537842 206.387650,337.537842 
	C208.671768,334.803192 209.947250,332.352936 211.964859,331.067596 
	C215.358200,328.905945 218.937332,329.712891 222.317078,332.526184 
z"/>
<path fill="#FAFAFA" opacity="1.000000" stroke="none" 
	d="
M292.315308,416.526245 
	C287.102203,417.256409 283.529114,415.334686 281.397827,411.010529 
	C279.257202,406.667358 279.629120,399.957916 283.127228,397.658936 
	C285.957367,395.798920 290.148743,394.785278 293.492645,395.229675 
	C298.074432,395.838531 299.895325,399.935516 300.122131,404.475159 
	C300.434662,410.730072 298.438995,413.938782 292.315308,416.526245 
z"/>
</svg>